# Blender 4.1.1
# www.blender.org
mtllib SliderBackground.mtl
o SliderBackground
v -0.689140 0.939369 -0.049859
v -0.689140 1.071740 -0.049859
v -0.682986 0.945522 -0.116388
v -0.682986 1.065586 -0.116388
v -0.439764 0.939369 -0.049859
v -0.439764 1.071740 -0.049859
v -0.445918 0.945522 -0.116388
v -0.445918 1.065586 -0.116388
v -0.689140 1.071740 -0.116388
v -0.689140 0.939369 -0.116388
v -0.439764 0.939369 -0.116388
v -0.439764 1.071740 -0.116388
v -0.689140 0.986314 -0.049859
v -0.689140 0.986314 -0.116388
v -0.439764 0.986314 -0.116388
v -0.439764 0.986314 -0.049859
v -0.682986 0.986314 -0.116388
v -0.445918 0.986314 -0.116388
v -0.682986 1.065586 -0.113563
v -0.445918 1.065586 -0.113563
v -0.682986 0.986314 -0.113563
v -0.445918 0.986314 -0.113563
v -0.689140 0.986314 -0.121368
v -0.689140 0.939369 -0.121368
v -0.439764 0.939369 -0.121368
v -0.689140 1.071740 -0.121368
v -0.439764 1.071740 -0.121368
v -0.439764 0.986314 -0.121368
v -0.682986 0.986314 -0.121368
v -0.682986 0.945522 -0.121368
v -0.445918 0.945522 -0.121368
v -0.682986 1.065586 -0.121368
v -0.445918 1.065586 -0.121368
v -0.445918 0.986314 -0.121368
v -0.689140 0.960985 -0.116388
v -0.439764 0.960985 -0.116388
v -0.439764 0.960985 -0.049859
v -0.682986 0.960985 -0.116388
v -0.445918 0.960985 -0.116388
v -0.689140 0.960985 -0.049859
v -0.689140 0.960985 -0.121368
v -0.439764 0.960985 -0.121368
v -0.682986 0.960985 -0.121368
v -0.445918 0.960985 -0.121368
v -0.689140 0.967213 -0.049859
v -0.689140 0.967213 -0.116388
v -0.439764 0.967213 -0.116388
v -0.439764 0.967213 -0.049859
v -0.682986 0.967213 -0.116388
v -0.445918 0.967213 -0.116388
v -0.689140 0.967213 -0.121368
v -0.439764 0.967213 -0.121368
v -0.682986 0.967213 -0.121368
v -0.445918 0.967213 -0.121368
v -0.456389 0.939369 -0.116388
v -0.672515 0.939369 -0.116388
v -0.672515 1.071740 -0.116388
v -0.456389 1.071740 -0.116388
v -0.672515 0.939369 -0.049859
v -0.456389 0.939369 -0.049859
v -0.456389 1.071740 -0.049859
v -0.672515 1.071740 -0.049859
v -0.461722 0.945522 -0.116388
v -0.667182 0.945522 -0.116388
v -0.667182 1.065586 -0.116388
v -0.461722 1.065586 -0.116388
v -0.456389 0.986314 -0.049859
v -0.672515 0.986314 -0.049859
v -0.667182 0.986314 -0.116388
v -0.461722 0.986314 -0.116388
v -0.667182 1.065586 -0.113563
v -0.461722 1.065586 -0.113563
v -0.667182 0.986314 -0.113563
v -0.461722 0.986314 -0.113563
v -0.456389 0.939369 -0.121368
v -0.672515 0.939369 -0.121368
v -0.672515 1.071740 -0.121368
v -0.456389 1.071740 -0.121368
v -0.461722 0.945522 -0.121368
v -0.667182 0.945522 -0.121368
v -0.667182 1.065586 -0.121368
v -0.461722 1.065586 -0.121368
v -0.667182 0.960985 -0.116388
v -0.461722 0.960985 -0.116388
v -0.456389 0.960985 -0.049859
v -0.672515 0.960985 -0.049859
v -0.667182 0.967213 -0.116388
v -0.461722 0.967213 -0.116388
v -0.456389 0.967213 -0.049859
v -0.672515 0.967213 -0.049859
v -0.667182 0.960985 -0.110421
v -0.461722 0.960985 -0.110421
v -0.667182 0.967213 -0.110421
v -0.461722 0.967213 -0.110421
vn -1.0000 -0.0000 -0.0000
vn 1.0000 -0.0000 -0.0000
vn -0.0000 -0.0000 1.0000
vn -0.0000 -1.0000 -0.0000
vn -0.0000 1.0000 -0.0000
vn -0.0000 -0.0000 -1.0000
vt 0.462500 0.000000
vt 0.625000 0.000000
vt 0.625000 0.250000
vt 0.462500 0.250000
vt 0.465986 0.256169
vt 0.613378 0.256169
vt 0.462500 0.500000
vt 0.625000 0.500000
vt 0.625000 0.750000
vt 0.462500 0.750000
vt 0.462500 0.916667
vt 0.625000 0.916667
vt 0.625000 1.000000
vt 0.462500 1.000000
vt 0.291667 0.500000
vt 0.375000 0.500000
vt 0.375000 0.750000
vt 0.291667 0.750000
vt 0.791667 0.500000
vt 0.875000 0.500000
vt 0.875000 0.750000
vt 0.791667 0.750000
vt 0.421542 0.493831
vt 0.465986 0.493831
vt 0.421542 0.493831
vt 0.613378 0.493831
vt 0.208333 0.500000
vt 0.125000 0.500000
vt 0.613378 0.335390
vt 0.413500 0.916667
vt 0.413500 1.000000
vt 0.413500 0.500000
vt 0.413500 0.750000
vt 0.421542 0.414610
vt 0.465986 0.414610
vt 0.413500 0.000000
vt 0.413500 0.250000
vt 0.170632 0.300483
vt 0.170631 0.501092
vt 0.166455 0.501092
vt 0.166455 0.300483
vt 0.613378 0.414610
vt 0.465986 0.335390
vt 0.410431 0.256169
vt 0.386622 0.256169
vt 0.375000 0.250000
vt 0.401250 0.250000
vt 0.386622 0.414610
vt 0.386622 0.493831
vt 0.375000 0.416667
vt 0.625000 0.333333
vt 0.708333 0.500000
vt 0.410431 0.256169
vt 0.401250 0.500000
vt 0.401250 0.500000
vt 0.386622 0.414610
vt 0.401250 0.250000
vt 0.421542 0.256169
vt 0.421542 0.256169
vt 0.410431 0.493831
vt 0.375000 0.000000
vt 0.401250 0.000000
vt 0.410431 0.414610
vt 0.410431 0.493831
vt 0.401250 0.750000
vt 0.375000 0.916667
vt 0.401250 0.916667
vt 0.401250 1.000000
vt 0.375000 1.000000
vt 0.413500 0.833333
vt 0.401250 0.833333
vt 0.421542 0.335390
vt 0.410431 0.335390
vt 0.375000 0.833333
vt 0.386622 0.335390
vt 0.386622 0.335390
vt 0.613378 0.414610
vt 0.625000 0.416667
vt 0.375000 0.333333
vt 0.766385 0.300483
vt 0.766385 0.501092
vt 0.763556 0.501092
vt 0.763556 0.300483
vt 1.000093 0.719243
vt 1.000093 1.000160
vt 0.000587 1.000160
vt 0.000587 0.719243
vt 0.462500 0.833333
vt 0.708333 0.750000
vt 0.208333 0.750000
vt 0.125000 0.750000
vt 0.625000 0.833333
s 0
g SliderBackground_Intervals
usemtl Intervals
f 74/38/6 72/39/6 20/40/6 22/41/6
f 21/80/6 19/81/6 71/82/6 73/83/6
f 73/84/6 71/85/6 72/86/6 74/87/6
g SliderBackground_SurroundingBS
usemtl SurroundingBS
f 13/1/1 2/2/1 9/3/1 14/4/1
f 17/5/2 4/6/2 19/6/2 21/5/2
f 15/7/2 12/8/2 6/9/2 16/10/2
f 68/11/3 62/12/3 2/13/3 13/14/3
f 55/15/4 11/16/4 5/17/4 60/18/4
f 57/19/5 9/20/5 2/21/5 62/22/5
f 50/23/1 18/24/1 34/24/1 54/25/1
f 18/24/1 8/26/1 33/26/1 34/24/1
f 56/27/4 10/28/4 24/28/4 76/27/4
f 14/4/1 9/3/1 26/3/1 23/4/1
f 65/29/4 4/6/4 32/6/4 81/29/4
f 4/6/2 17/5/2 29/5/2 32/6/2
f 90/30/3 68/11/3 13/14/3 45/31/3
f 47/32/2 15/7/2 16/10/2 48/33/2
f 88/34/6 70/35/6 18/24/6 50/23/6
f 45/36/1 13/1/1 14/4/1 46/37/1
f 66/42/4 8/26/4 20/26/4 72/42/4
f 8/26/1 18/24/1 22/24/1 20/26/1
f 69/43/5 17/5/5 21/5/5 73/43/5
f 43/44/6 30/45/6 24/46/6 41/47/6
f 79/48/6 31/49/6 25/16/6 75/50/6
f 81/29/6 32/6/6 26/3/6 77/51/6
f 34/24/6 33/26/6 27/8/6 28/7/6
f 54/25/6 34/24/6 28/7/6 52/32/6
f 32/6/6 29/5/6 23/4/6 26/3/6
f 12/8/2 15/7/2 28/7/2 27/8/2
f 58/52/5 12/8/5 27/8/5 78/52/5
f 38/53/2 3/45/2 30/45/2 43/44/2
f 36/54/2 11/16/2 25/16/2 42/55/2
f 63/56/5 7/49/5 31/49/5 79/48/5
f 46/37/1 14/4/1 23/4/1 51/37/1
f 10/46/1 35/57/1 41/47/1 24/46/1
f 47/32/2 36/54/2 42/55/2 52/32/2
f 49/58/2 38/53/2 43/44/2 53/59/2
f 31/49/6 44/60/6 42/55/6 25/16/6
f 53/59/6 43/44/6 41/47/6 51/37/6
f 1/61/1 40/62/1 35/57/1 10/46/1
f 63/56/6 84/63/6 39/64/6 7/49/6
f 11/16/2 36/54/2 37/65/2 5/17/2
f 59/66/3 86/67/3 40/68/3 1/69/3
f 7/49/1 39/64/1 44/60/1 31/49/1
f 29/5/6 53/59/6 51/37/6 23/4/6
f 17/5/2 49/58/2 53/59/2 29/5/2
f 15/7/2 47/32/2 52/32/2 28/7/2
f 35/57/1 46/37/1 51/37/1 41/47/1
f 44/60/6 54/25/6 52/32/6 42/55/6
f 40/62/1 45/36/1 46/37/1 35/57/1
f 84/63/6 88/34/6 50/23/6 39/64/6
f 36/54/2 47/32/2 48/33/2 37/65/2
f 86/67/3 90/30/3 45/31/3 40/68/3
f 39/64/1 50/23/1 54/25/1 44/60/1
f 37/65/3 48/33/3 89/70/3 85/71/3
f 85/71/3 89/70/3 90/30/3 86/67/3
f 38/53/6 49/58/6 87/72/6 83/73/6
f 84/63/5 83/73/5 91/73/5 92/63/5
f 5/17/3 37/65/3 85/71/3 60/74/3
f 60/74/3 85/71/3 86/67/3 59/66/3
f 3/45/6 38/53/6 83/73/6 64/75/6
f 64/75/6 83/73/6 84/63/6 63/56/6
f 3/45/5 64/75/5 80/76/5 30/45/5
f 64/75/5 63/56/5 79/48/5 80/76/5
f 9/20/5 57/19/5 77/19/5 26/20/5
f 57/19/5 58/52/5 78/52/5 77/19/5
f 33/26/6 82/77/6 78/78/6 27/8/6
f 82/77/6 81/29/6 77/51/6 78/78/6
f 30/45/6 80/76/6 76/79/6 24/46/6
f 80/76/6 79/48/6 75/50/6 76/79/6
f 18/24/5 70/35/5 74/35/5 22/24/5
f 70/35/5 69/43/5 73/43/5 74/35/5
f 4/6/4 65/29/4 71/29/4 19/6/4
f 65/29/4 66/42/4 72/42/4 71/29/4
f 49/58/6 17/5/6 69/43/6 87/72/6
f 87/72/6 69/43/6 70/35/6 88/34/6
f 48/33/3 16/10/3 67/88/3 89/70/3
f 89/70/3 67/88/3 68/11/3 90/30/3
f 8/26/4 66/42/4 82/77/4 33/26/4
f 66/42/4 65/29/4 81/29/4 82/77/4
f 11/16/4 55/15/4 75/15/4 25/16/4
f 55/15/4 56/27/4 76/27/4 75/15/4
f 12/8/5 58/52/5 61/89/5 6/9/5
f 58/52/5 57/19/5 62/22/5 61/89/5
f 10/28/4 56/27/4 59/90/4 1/91/4
f 56/27/4 55/15/4 60/18/4 59/90/4
f 16/10/3 6/9/3 61/92/3 67/88/3
f 67/88/3 61/92/3 62/12/3 68/11/3
f 91/73/6 93/72/6 94/34/6 92/63/6
f 83/73/2 87/72/2 93/72/2 91/73/2
f 88/34/1 84/63/1 92/63/1 94/34/1
f 87/72/4 88/34/4 94/34/4 93/72/4
