# Blender 4.1.1
# www.blender.org
mtllib Switch.mtl
o Switch
v -0.379252 1.023960 -0.132242
v -0.352641 1.023960 -0.132242
v -0.379252 1.017471 -0.131603
v -0.352641 1.017471 -0.131603
v -0.379252 1.011231 -0.129710
v -0.352641 1.011231 -0.129710
v -0.379252 1.005480 -0.126636
v -0.352641 1.005480 -0.126636
v -0.379252 1.000439 -0.122500
v -0.352641 1.000439 -0.122500
v -0.379252 0.996302 -0.117459
v -0.352641 0.996302 -0.117459
v -0.379252 0.993228 -0.111708
v -0.352641 0.993228 -0.111708
v -0.379252 0.991336 -0.105468
v -0.352641 0.991336 -0.105468
v -0.379252 0.990696 -0.098978
v -0.352641 0.990696 -0.098978
v -0.379252 0.991336 -0.092489
v -0.352641 0.991336 -0.092489
v -0.379252 0.993228 -0.086249
v -0.352641 0.993228 -0.086249
v -0.379252 0.996302 -0.080498
v -0.352641 0.996302 -0.080498
v -0.379252 1.000439 -0.075457
v -0.352641 1.000439 -0.075457
v -0.379252 1.005480 -0.071320
v -0.352641 1.005480 -0.071320
v -0.379252 1.011231 -0.068247
v -0.352641 1.011231 -0.068247
v -0.379252 1.017471 -0.066354
v -0.352641 1.017471 -0.066354
v -0.379252 1.023960 -0.065714
v -0.352641 1.023960 -0.065714
v -0.379252 1.030450 -0.066354
v -0.352641 1.030450 -0.066354
v -0.379252 1.036690 -0.068247
v -0.352641 1.036690 -0.068247
v -0.379252 1.042441 -0.071320
v -0.352641 1.042441 -0.071320
v -0.379252 1.047482 -0.075457
v -0.352641 1.047482 -0.075457
v -0.379252 1.051618 -0.080498
v -0.352641 1.051618 -0.080498
v -0.379252 1.054692 -0.086249
v -0.352641 1.054692 -0.086249
v -0.379252 1.056585 -0.092489
v -0.352641 1.056585 -0.092489
v -0.379252 1.057224 -0.098978
v -0.352641 1.057224 -0.098978
v -0.379252 1.056585 -0.105468
v -0.352641 1.056585 -0.105468
v -0.379252 1.054692 -0.111708
v -0.352641 1.054692 -0.111708
v -0.379252 1.051618 -0.117459
v -0.352641 1.051618 -0.117459
v -0.379252 1.047482 -0.122500
v -0.352641 1.047482 -0.122500
v -0.379252 1.042441 -0.126636
v -0.352641 1.042441 -0.126636
v -0.379252 1.036690 -0.129710
v -0.352641 1.036690 -0.129710
v -0.379252 1.030450 -0.131603
v -0.352641 1.030450 -0.131603
v -0.375923 1.023960 -0.161479
v -0.375923 1.018718 -0.160840
v -0.355970 1.018718 -0.160840
v -0.355970 1.023960 -0.161479
v -0.375923 1.014174 -0.158947
v -0.355970 1.014174 -0.158947
v -0.355970 1.033747 -0.158947
v -0.375923 1.033747 -0.158947
v -0.375923 1.029203 -0.160840
v -0.355970 1.029203 -0.160840
vn -0.9981 -0.0149 -0.0600
vn -0.9982 -0.0000 -0.0593
vn -0.9935 -0.0000 -0.1134
vn -0.9932 -0.0237 -0.1144
vn 0.9981 0.0149 -0.0600
vn 0.9982 -0.0000 -0.0593
vn 0.9935 -0.0000 -0.1134
vn 0.9932 0.0237 -0.1144
vn -0.0000 -0.4714 -0.8819
vn -0.0000 -0.5556 -0.8315
vn -0.0000 -0.7071 -0.7071
vn -0.0000 -0.8315 -0.5556
vn -0.0000 -0.9239 -0.3827
vn -0.0000 -0.9808 -0.1951
vn -0.0000 -1.0000 -0.0000
vn -0.0000 -0.9808 0.1951
vn -0.0000 -0.9239 0.3827
vn -0.0000 -0.8315 0.5556
vn -0.0000 -0.7071 0.7071
vn -0.0000 -0.5556 0.8315
vn -0.0000 -0.3827 0.9239
vn -0.0000 -0.1951 0.9808
vn -0.0000 -0.0000 1.0000
vn -0.0000 0.1951 0.9808
vn -0.0000 0.3827 0.9239
vn -0.0000 0.5556 0.8315
vn -0.0000 0.7071 0.7071
vn -0.0000 0.8315 0.5556
vn -0.0000 0.9239 0.3827
vn -0.0000 0.9808 0.1951
vn -0.0000 1.0000 -0.0000
vn -0.0000 0.9808 -0.1951
vn -0.0000 0.9239 -0.3827
vn -0.0000 0.8315 -0.5556
vn -0.0000 0.7071 -0.7071
vn -0.0000 0.5556 -0.8315
vn -0.0000 0.4714 -0.8819
vn 0.9981 -0.0149 -0.0600
vn 0.9994 0.0114 -0.0325
vn 1.0000 -0.0000 -0.0000
vn 0.9994 -0.0114 -0.0325
vn -0.9981 0.0149 -0.0600
vn -0.9994 0.0114 -0.0325
vn -0.9924 0.0407 -0.1159
vn -0.9932 0.0237 -0.1144
vn -0.0000 -0.9950 -0.1001
vn -0.9994 -0.0114 -0.0325
vn -1.0000 -0.0000 -0.0000
vn -0.0000 -0.0000 -1.0000
vn -0.0000 -0.2551 -0.9669
vn -0.0000 -0.3845 -0.9231
vn -0.0000 0.3845 -0.9231
vn -0.0000 0.2551 -0.9669
vn 0.9924 0.0407 -0.1159
vn -0.9924 -0.0407 -0.1159
vn 0.9932 -0.0237 -0.1144
vn 0.9924 -0.0407 -0.1159
vn -0.0000 0.9950 -0.1001
vt 0.796822 0.485388
vt 0.750000 0.490000
vt 0.203178 0.485388
vt 0.250000 0.490000
vt 0.937500 0.500000
vt 0.937500 1.000000
vt 0.906250 1.000000
vt 0.906250 0.500000
vt 0.875000 1.000000
vt 0.875000 0.500000
vt 0.843750 1.000000
vt 0.843750 0.500000
vt 0.812500 1.000000
vt 0.812500 0.500000
vt 0.781250 1.000000
vt 0.781250 0.500000
vt 0.750000 1.000000
vt 0.750000 0.500000
vt 0.718750 1.000000
vt 0.718750 0.500000
vt 0.687500 1.000000
vt 0.687500 0.500000
vt 0.656250 1.000000
vt 0.656250 0.500000
vt 0.625000 1.000000
vt 0.625000 0.500000
vt 0.593750 1.000000
vt 0.593750 0.500000
vt 0.562500 1.000000
vt 0.562500 0.500000
vt 0.531250 1.000000
vt 0.531250 0.500000
vt 0.500000 1.000000
vt 0.500000 0.500000
vt 0.468750 1.000000
vt 0.468750 0.500000
vt 0.437500 1.000000
vt 0.437500 0.500000
vt 0.406250 1.000000
vt 0.406250 0.500000
vt 0.375000 1.000000
vt 0.375000 0.500000
vt 0.343750 1.000000
vt 0.343750 0.500000
vt 0.312500 1.000000
vt 0.312500 0.500000
vt 0.281250 1.000000
vt 0.281250 0.500000
vt 0.250000 1.000000
vt 0.250000 0.500000
vt 0.218750 1.000000
vt 0.218750 0.500000
vt 0.187500 1.000000
vt 0.187500 0.500000
vt 0.156250 1.000000
vt 0.156250 0.500000
vt 0.125000 1.000000
vt 0.125000 0.500000
vt 0.093750 1.000000
vt 0.093750 0.500000
vt 0.062500 1.000000
vt 0.062500 0.500000
vt 0.296822 0.485388
vt 0.158156 0.471731
vt 0.116663 0.449553
vt 0.080294 0.419706
vt 0.050447 0.383337
vt 0.028269 0.341844
vt 0.014612 0.296822
vt 0.010000 0.250000
vt 0.014612 0.203178
vt 0.028269 0.158156
vt 0.050447 0.116663
vt 0.080294 0.080294
vt 0.116663 0.050447
vt 0.158156 0.028269
vt 0.203178 0.014612
vt 0.250000 0.010000
vt 0.296822 0.014612
vt 0.341844 0.028269
vt 0.383337 0.050447
vt 0.419706 0.080294
vt 0.449553 0.116663
vt 0.471731 0.158156
vt 0.485388 0.203178
vt 0.490000 0.250000
vt 0.485388 0.296822
vt 0.471731 0.341844
vt 0.449553 0.383337
vt 0.419706 0.419706
vt 0.383337 0.449553
vt 0.341844 0.471731
vt 0.703178 0.485388
vt 0.658156 0.471731
vt 0.841844 0.471731
vt 0.883337 0.449553
vt 0.919706 0.419706
vt 0.949553 0.383337
vt 0.971731 0.341844
vt 0.985388 0.296822
vt 0.990000 0.250000
vt 0.985388 0.203178
vt 0.971731 0.158156
vt 0.949553 0.116663
vt 0.919706 0.080294
vt 0.883337 0.050447
vt 0.841844 0.028269
vt 0.796822 0.014612
vt 0.750000 0.010000
vt 0.703178 0.014612
vt 0.658156 0.028269
vt 0.616663 0.050447
vt 0.580294 0.080294
vt 0.550447 0.116663
vt 0.528269 0.158156
vt 0.514612 0.203178
vt 0.510000 0.250000
vt 0.514612 0.296822
vt 0.528269 0.341844
vt 0.550447 0.383337
vt 0.580294 0.419706
vt 0.616663 0.449553
vt 1.000000 0.500000
vt 1.000000 1.000000
vt 0.968750 1.000000
vt 0.968750 0.500000
vt 0.031250 1.000000
vt 0.031250 0.500000
vt 0.000000 1.000000
vt 0.000000 0.500000
s 1
usemtl Switch
f 3/1/1 1/2/2 65/2/3 66/1/4
f 64/3/5 2/4/6 68/4/7 74/3/8
f 5/5/9 6/6/9 8/7/10 7/8/10
f 7/8/10 8/7/10 10/9/11 9/10/11
f 9/10/11 10/9/11 12/11/12 11/12/12
f 11/12/12 12/11/12 14/13/13 13/14/13
f 13/14/13 14/13/13 16/15/14 15/16/14
f 15/16/14 16/15/14 18/17/15 17/18/15
f 17/18/15 18/17/15 20/19/16 19/20/16
f 19/20/16 20/19/16 22/21/17 21/22/17
f 21/22/17 22/21/17 24/23/18 23/24/18
f 23/24/18 24/23/18 26/25/19 25/26/19
f 25/26/19 26/25/19 28/27/20 27/28/20
f 27/28/20 28/27/20 30/29/21 29/30/21
f 29/30/21 30/29/21 32/31/22 31/32/22
f 31/32/22 32/31/22 34/33/23 33/34/23
f 33/34/23 34/33/23 36/35/24 35/36/24
f 35/36/24 36/35/24 38/37/25 37/38/25
f 37/38/25 38/37/25 40/39/26 39/40/26
f 39/40/26 40/39/26 42/41/27 41/42/27
f 41/42/27 42/41/27 44/43/28 43/44/28
f 43/44/28 44/43/28 46/45/29 45/46/29
f 45/46/29 46/45/29 48/47/30 47/48/30
f 47/48/30 48/47/30 50/49/31 49/50/31
f 49/50/31 50/49/31 52/51/32 51/52/32
f 51/52/32 52/51/32 54/53/33 53/54/33
f 53/54/33 54/53/33 56/55/34 55/56/34
f 55/56/34 56/55/34 58/57/35 57/58/35
f 57/58/35 58/57/35 60/59/36 59/60/36
f 59/60/36 60/59/36 62/61/37 61/62/37
f 4/63/38 2/4/6 64/3/5 62/64/39 60/65/40 58/66/40 56/67/40 54/68/40 52/69/40 50/70/40 48/71/40 46/72/40 44/73/40 42/74/40 40/75/40 38/76/40 36/77/40 34/78/40 32/79/40 30/80/40 28/81/40 26/82/40 24/83/40 22/84/40 20/85/40 18/86/40 16/87/40 14/88/40 12/89/40 10/90/40 8/91/40 6/92/41
f 63/93/42 61/94/43 72/94/44 73/93/45
f 6/6/46 5/5/46 69/5/46 70/6/46
f 1/2/2 3/1/1 5/95/47 7/96/48 9/97/48 11/98/48 13/99/48 15/100/48 17/101/48 19/102/48 21/103/48 23/104/48 25/105/48 27/106/48 29/107/48 31/108/48 33/109/48 35/110/48 37/111/48 39/112/48 41/113/48 43/114/48 45/115/48 47/116/48 49/117/48 51/118/48 53/119/48 55/120/48 57/121/48 59/122/48 61/94/43 63/93/42
f 65/123/49 68/124/49 67/125/50 66/126/50
f 66/126/50 67/125/50 70/6/51 69/5/51
f 72/62/52 71/61/52 74/127/53 73/128/53
f 73/128/53 74/127/53 68/129/49 65/130/49
f 62/64/39 64/3/5 74/3/8 71/64/54
f 5/95/47 3/1/1 66/1/4 69/95/55
f 2/4/6 4/63/38 67/63/56 68/4/7
f 4/63/38 6/92/41 70/92/57 67/63/56
f 61/62/58 62/61/58 71/61/58 72/62/58
f 1/2/2 63/93/42 73/93/45 65/2/3
